<svg width="98" height="98" viewBox="0 0 98 98" fill="none" xmlns="http://www.w3.org/2000/svg">
<rect x="76.9206" y="0.612372" width="79" height="79" rx="39.5" transform="rotate(75 76.9206 0.612372)" stroke="black"/>
<path d="M36.9345 67.7489C37.1489 68.5491 37.9714 69.0239 38.7716 68.8095L51.8116 65.3155C52.6118 65.1011 53.0867 64.2786 52.8723 63.4784C52.6579 62.6782 51.8354 62.2033 51.0352 62.4177L39.4441 65.5235L36.3382 53.9324C36.1238 53.1322 35.3013 52.6573 34.5011 52.8718C33.7009 53.0862 33.226 53.9087 33.4405 54.7089L36.9345 67.7489ZM59.0047 28.6436L37.0844 66.6106L39.6824 68.1106L61.6027 30.1436L59.0047 28.6436Z" fill="#9ABF3C"/>
</svg>
